<?xml version="1.0" encoding="utf-8"?>
<!-- Generator: Adobe Illustrator 20.0.0, SVG Export Plug-In . SVG Version: 6.00 Build 0)  -->
<svg version="1.1" id="Layer_1" xmlns="http://www.w3.org/2000/svg" xmlns:xlink="http://www.w3.org/1999/xlink" x="0px" y="0px"
	 viewBox="0 0 24 24" style="enable-background:new 0 0 24 24;" xml:space="preserve">
<style type="text/css">
	.st0{fill:#50E3C2;}
</style>
<path class="st0" d="M22.2,0.5H1.8c-0.7,0-1.3,0.6-1.3,1.3v20.5c0,0.7,0.6,1.3,1.3,1.3h11v-8.9h-3v-3.5h3V8.6c0-3,1.8-4.6,4.5-4.6
	c1.3,0,2.4,0.1,2.7,0.1v3.1l-1.8,0c-1.4,0-1.7,0.7-1.7,1.7v2.2h3.4l-0.4,3.5h-3v8.9h5.9c0.7,0,1.3-0.6,1.3-1.3V1.8
	C23.5,1.1,22.9,0.5,22.2,0.5z"/>
</svg>
