<?xml version="1.0" encoding="utf-8"?>
<!-- Generator: Adobe Illustrator 20.0.0, SVG Export Plug-In . SVG Version: 6.00 Build 0)  -->
<svg version="1.1" id="Layer_1" xmlns="http://www.w3.org/2000/svg" xmlns:xlink="http://www.w3.org/1999/xlink" x="0px" y="0px"
	 viewBox="0 0 24 24" style="enable-background:new 0 0 24 24;" xml:space="preserve">
<style type="text/css">
	.st0{fill:#50E3C2;}
</style>
<g>
	<path class="st0" d="M12,2.6c3.1,0,3.4,0,4.6,0.1c1.1,0.1,1.7,0.2,2.1,0.4c0.5,0.2,0.9,0.5,1.3,0.9c0.4,0.4,0.7,0.8,0.9,1.3
		c0.2,0.4,0.3,1,0.4,2.1c0.1,1.2,0.1,1.6,0.1,4.6s0,3.4-0.1,4.6c-0.1,1.1-0.2,1.7-0.4,2.1c-0.2,0.5-0.5,0.9-0.9,1.3
		c-0.4,0.4-0.8,0.7-1.3,0.9c-0.4,0.2-1,0.3-2.1,0.4c-1.2,0.1-1.6,0.1-4.6,0.1s-3.4,0-4.6-0.1c-1.1-0.1-1.7-0.2-2.1-0.4
		c-0.5-0.2-0.9-0.5-1.3-0.9c-0.4-0.4-0.7-0.8-0.9-1.3c-0.2-0.4-0.3-1-0.4-2.1c-0.1-1.2-0.1-1.6-0.1-4.6s0-3.4,0.1-4.6
		C2.7,6.2,2.9,5.6,3,5.2c0.2-0.5,0.5-0.9,0.9-1.3C4.3,3.5,4.7,3.2,5.2,3c0.4-0.2,1-0.3,2.1-0.4C8.6,2.6,8.9,2.6,12,2.6 M12,0.5
		c-3.1,0-3.5,0-4.7,0.1C6,0.6,5.2,0.8,4.5,1.1c-0.8,0.3-1.4,0.7-2,1.3c-0.6,0.6-1,1.3-1.3,2C0.8,5.2,0.6,6,0.6,7.3
		C0.5,8.5,0.5,8.9,0.5,12c0,3.1,0,3.5,0.1,4.7c0.1,1.2,0.3,2.1,0.5,2.8c0.3,0.8,0.7,1.4,1.3,2c0.6,0.6,1.3,1,2,1.3
		c0.7,0.3,1.6,0.5,2.8,0.5c1.2,0.1,1.6,0.1,4.7,0.1s3.5,0,4.7-0.1c1.2-0.1,2.1-0.3,2.8-0.5c0.8-0.3,1.4-0.7,2-1.3
		c0.6-0.6,1-1.3,1.3-2c0.3-0.7,0.5-1.6,0.5-2.8c0.1-1.2,0.1-1.6,0.1-4.7s0-3.5-0.1-4.7c-0.1-1.2-0.3-2.1-0.5-2.8
		c-0.3-0.8-0.7-1.4-1.3-2c-0.6-0.6-1.3-1-2-1.3c-0.7-0.3-1.6-0.5-2.8-0.5C15.5,0.5,15.1,0.5,12,0.5L12,0.5z"/>
	<path class="st0" d="M12,6.1c-3.3,0-5.9,2.6-5.9,5.9s2.6,5.9,5.9,5.9s5.9-2.6,5.9-5.9S15.3,6.1,12,6.1z M12,15.8
		c-2.1,0-3.8-1.7-3.8-3.8S9.9,8.2,12,8.2s3.8,1.7,3.8,3.8S14.1,15.8,12,15.8z"/>
	<circle class="st0" cx="18.1" cy="5.9" r="1.4"/>
</g>
</svg>
