<?xml version="1.0" encoding="utf-8"?>
<!-- Generator: Adobe Illustrator 20.0.0, SVG Export Plug-In . SVG Version: 6.00 Build 0)  -->
<svg version="1.1" id="Layer_1" xmlns="http://www.w3.org/2000/svg" xmlns:xlink="http://www.w3.org/1999/xlink" x="0px" y="0px"
	 viewBox="0 0 100 37.9" style="enable-background:new 0 0 100 37.9;" xml:space="preserve">
<style type="text/css">
	.st0{fill:#009082;}
	.st1{fill:#4EBEA4;}
</style>
<g>
	<g>
		<path class="st0" d="M35.4,27.8c-5.5-4.6-5.7-7.4-5.5-8.5c-0.3,0.2-0.6,0.5-0.9,0.7c-1.5,1.2-2.8,2.6-1.6,5.3
			c1.8,2.6,6.5,7.8,8.9,9.9c2.9,2.5,6.4,0.9,6.4,0.9S39.1,30.9,35.4,27.8z"/>
		<path class="st0" d="M98.9,15.2C98.9,1.1,94.4,1,94.4,1l0,33c0,0-0.1,2.2,1.3,2.6c0.8,0.2,2,0,2.7-2.2
			C99.3,32,98.9,21.9,98.9,15.2z"/>
		<path class="st0" d="M63.6,11c-1.5,0-2.7,1.2-2.7,2.7V25c0,4-3,7.5-7,7.7c-0.2,0-0.3,0-0.5,0c-0.2,0-0.3,0-0.5,0
			c-4-0.3-7-3.7-7-7.7V13.7c0-1.5-1.2-2.7-2.7-2.7c-0.8,0-1.5,0.7-1.5,1.5v12.4c0,6.3,4.8,11.7,11.1,12c0.2,0,0.4,0,0.6,0
			c0.2,0,0.4,0,0.6,0c6.3-0.3,11.1-5.7,11.1-12V12.5C65.1,11.7,64.4,11,63.6,11z"/>
		<path class="st0" d="M89.8,11c-1.5,0-2.7,1.2-2.7,2.7V25c0,4-3,7.5-7,7.7c-0.2,0-0.3,0-0.5,0c-0.2,0-0.3,0-0.5,0
			c-4-0.3-7-3.7-7-7.7V13.7c0-1.5-1.2-2.7-2.7-2.7c-0.8,0-1.5,0.7-1.5,1.5v12.4c0,6.3,4.8,11.7,11.1,12c0.2,0,0.4,0,0.6,0
			c0.2,0,0.4,0,0.6,0c6.3-0.3,11.1-5.7,11.1-12V12.5C91.4,11.7,90.7,11,89.8,11z"/>
	</g>
	<g>
		<path class="st1" d="M19.8,15.2c0.7,6.7,0.4,10,0.4,10c0,4.3-3.6,7.8-8,7.5c-4-0.3-7-3.7-7-7.7V13.7C5.2,12.2,4,11,2.5,11h0
			C1.7,11,1,11.7,1,12.5v12.4c0,6.3,4.8,11.7,11.1,12c6.7,0.3,12.3-5,12.3-11.7V1C24.4,1,18.4,1.5,19.8,15.2z"/>
		<path class="st1" d="M31.3,12.7c-3.4,2.9-4.6,5.2-4.6,5.2c-2.1,4.4,0.6,7.4,0.6,7.4c-1.2-2.7,0.1-4.1,1.6-5.3
			c5.9-4.9,8.8-8.6,8.8-8.6S34.6,9.8,31.3,12.7z"/>
	</g>
</g>
</svg>
